{"title":"The Devil's Own*1997*[BluRay][1080p][ENG, POL]","uid":5860634,"size":7794967903,"categoryP":"video","categoryS":"hd___movies","magnet":"?xt=urn:btih:13684ee9f9e94b3beca0d809b3e0e1a486ff69ca&amp;dn=The+Devil%5C%27s+Own%2A1997%2A%5BBluRay%5D%5B1080p%5D%5BENG%2C+POL%5D&amp;tr=udp%3A%2F%2Ftracker.openbittorrent.com%3A80&amp;tr=udp%3A%2F%2Fopen.demonii.com%3A1337&amp;tr=udp%3A%2F%2Ftracker.coppersurfer.tk%3A6969&amp;tr=udp%3A%2F%2Fexodus.desync.com%3A6969","seeders":0,"leechers":1,"uploader":"albedo040","files":1,"time":1285956062,"description":"The Devil's Own*1997*[BluRay][1080p][ENG, POL]\n\nGeneral information:\nCountry: USA\nRelease: 13 March 1997\nGenre: Crime, Drama, Thriller \nDirector: Alan J. Pakula\nScreenplay: David Aaron Cohen, Vincent Patrick, Kevin Jarre\nOriginal Music: Jane Musky\nCinematography by: Gordon Willis\nDuration: 1h 51mn\nLanguage: English, Polish\nSubtitles: English, Polish\nRating: 7.2/10 - 2975 votes\n\nCast:\nHarrison Ford  ...  Tom O'Meara  \nBrad Pitt  ...  Rory Devaney / Francis Austin McGuire  \nMargaret Colin  ...  Sheila O'Meara  \nRubÃƒÂ©n Blades  ...  Edwin Diaz  \nTreat Williams  ...  Billy Burke  \nGeorge Hearn  ...  Peter Fitzsimmons  \nMitch Ryan  ...  Chief Jim Kelly (as Mitchell Ryan)  \nNatascha McElhone  ...  Megan Doherty  \nPaul Ronan  ...  Sean Phelan  \nSimon Jones  ...  Harry Sloan  \nJulia Stiles  ...  Bridget O'Meara  \nAshley Carin  ...  Morgan O'Meara  \nKelly Singer  ...  Annie O'Meara  \nDavid O'Hara  ...  Martin MacDuf  \nDavid Wilmot  ...  Dessie  \n\nPlot:\nA police officer uncovers the real identity of his houseguest, an IRA terrorist in hiding.\n\nSpecifications:\nGeneral\nFormat                           : Matroska\nOverall bit rate                 : 9 341 Kbps\n\nVideo\nFormat                           : AVC\nFormat/Info                      : Advanced Video Codec\nFormat profile                   : &lt;a class=&quot;__cf_email__&quot; href=&quot;/cdn-cgi/l/email-protection&quot; data-cfemail=&quot;f9b1909e91b9b5cdd7c9&quot;&gt;[email&amp;#160;protected]&lt;/a&gt;&lt;script cf-hash='f9e31' type=&quot;text/javascript&quot;&gt;\n/* &lt;![CDATA[ */!function(){try{var t=&quot;currentScript&quot;in document?document.currentScript:function(){for(var t=document.getElementsByTagName(&quot;script&quot;),e=t.length;e--;)if(t[e].getAttribute(&quot;cf-hash&quot;))return t[e]}();if(t&amp;&amp;t.previousSibling){var e,r,n,i,c=t.previousSibling,a=c.getAttribute(&quot;data-cfemail&quot;);if(a){for(e=&quot;&quot;,r=parseInt(a.substr(0,2),16),n=2;a.length-n;n+=2)i=parseInt(a.substr(n,2),16)^r,e+=String.fromCharCode(i);e=document.createTextNode(e),c.parentNode.replaceChild(e,c)}}}catch(u){}}();/* ]]&gt; */&lt;/script&gt;\nFormat settings, CABAC           : Yes\nFormat settings, ReFrames        : 3 frames\nMuxing mode                      : Container profile=&lt;a class=&quot;__cf_email__&quot; href=&quot;/cdn-cgi/l/email-protection&quot; data-cfemail=&quot;6c39020702031b022c58425c&quot;&gt;[email&amp;#160;protected]&lt;/a&gt;&lt;script cf-hash='f9e31' type=&quot;text/javascript&quot;&gt;\n/* &lt;![CDATA[ */!function(){try{var t=&quot;currentScript&quot;in document?document.currentScript:function(){for(var t=document.getElementsByTagName(&quot;script&quot;),e=t.length;e--;)if(t[e].getAttribute(&quot;cf-hash&quot;))return t[e]}();if(t&amp;&amp;t.previousSibling){var e,r,n,i,c=t.previousSibling,a=c.getAttribute(&quot;data-cfemail&quot;);if(a){for(e=&quot;&quot;,r=parseInt(a.substr(0,2),16),n=2;a.length-n;n+=2)i=parseInt(a.substr(n,2),16)^r,e+=String.fromCharCode(i);e=document.createTextNode(e),c.parentNode.replaceChild(e,c)}}}catch(u){}}();/* ]]&gt; */&lt;/script&gt;\nCodec ID                         : V_MPEG4/ISO/AVC\nBit rate                         : 8 064 Kbps\nWidth                            : 1 920 pixels\nHeight                           : 1 080 pixels\nDisplay aspect ratio             : 16:9\nFrame rate                       : 23.976 fps\n\nAudio 1\nFormat                           : AC-3\nFormat/Info                      : Audio Coding 3\nMode extension                   : CM (complete main)\nCodec ID                         : A_AC3\nBit rate mode                    : Constant\nBit rate                         : 640 Kbps\nChannel(s)                       : 6 channels\nChannel positions                : Front: L C R, Side: L R, LFE\nSampling rate                    : 48.0 KHz\nStream size                      : 509 MiB (7%)\nTitle                            : English_A\n\nAudio 2\nFormat                           : AC-3\nFormat/Info                      : Audio Coding 3\nMode extension                   : CM (complete main)\nCodec ID                         : A_AC3\nBit rate mode                    : Constant\nBit rate                         : 640 Kbps\nChannel(s)                       : 6 channels\nChannel positions                : Front: L C R, Side: L R, LFE\nSampling rate                    : 48.0 KHz\nStream size                      : 509 MiB (7%)\nTitle                            : Polish_A\nLanguage                         : Polish\n\nText 1\nFormat                           : UTF-8\nCodec ID                         : S_TEXT/UTF8\nCodec ID/Info                    : UTF-8 Plain Text\nTitle                            : English\n\nText 2\nFormat                           : UTF-8\nCodec ID                         : S_TEXT/UTF8\nCodec ID/Info                    : UTF-8 Plain Text\nTitle                            : Polish\n","torrent":{"xt":"urn:btih:13684ee9f9e94b3beca0d809b3e0e1a486ff69ca","amp;dn":"The+Devil%5C%27s+Own%2A1997%2A%5BBluRay%5D%5B1080p%5D%5BENG%2C+POL%5D","amp;tr":["udp%3A%2F%2Ftracker.openbittorrent.com%3A80","udp%3A%2F%2Fopen.demonii.com%3A1337","udp%3A%2F%2Ftracker.coppersurfer.tk%3A6969","udp%3A%2F%2Fexodus.desync.com%3A6969"],"infoHash":"13684ee9f9e94b3beca0d809b3e0e1a486ff69ca","infoHashBuffer":{"type":"Buffer","data":[19,104,78,233,249,233,75,59,236,160,216,9,179,224,225,164,134,255,105,202]},"announce":[],"urlList":[]}}